<svg xmlns="http://www.w3.org/2000/svg" xmlns:xlink="http://www.w3.org/1999/xlink" width="500" zoomAndPan="magnify" viewBox="0 0 375 374.999991" height="500" preserveAspectRatio="xMidYMid meet" version="1.0"><defs><g/><clipPath id="5c3c904301"><path d="M 112.5 91.445312 L 262.5 91.445312 L 262.5 241.445312 L 112.5 241.445312 Z M 112.5 91.445312 " clip-rule="nonzero"/></clipPath></defs><rect x="-37.5" width="450" fill="#ffffff" y="-37.499999" height="449.999989" fill-opacity="1"/><rect x="-37.5" width="450" fill="#ffffff" y="-37.499999" height="449.999989" fill-opacity="1"/><g fill="#242424" fill-opacity="1"><g transform="translate(79.996387, 275.772565)"><g><path d="M 14.859375 0.4375 C 12.179688 0.4375 9.863281 -0.0859375 7.90625 -1.140625 C 5.945312 -2.191406 4.460938 -3.566406 3.453125 -5.265625 C 2.453125 -6.972656 1.953125 -8.753906 1.953125 -10.609375 L 1.953125 -10.984375 L 10.125 -10.984375 L 10.125 -10.65625 C 10.125 -9.507812 10.535156 -8.457031 11.359375 -7.5 C 12.191406 -6.539062 13.40625 -6.0625 15 -6.0625 C 16.363281 -6.0625 17.457031 -6.410156 18.28125 -7.109375 C 19.113281 -7.816406 19.53125 -8.742188 19.53125 -9.890625 C 19.53125 -10.910156 19.164062 -11.726562 18.4375 -12.34375 C 17.707031 -12.96875 16.816406 -13.390625 15.765625 -13.609375 L 11.9375 -14.375 C 9.707031 -14.882812 7.617188 -15.835938 5.671875 -17.234375 C 3.734375 -18.640625 2.765625 -20.9375 2.765625 -24.125 C 2.765625 -26.1875 3.265625 -27.96875 4.265625 -29.46875 C 5.273438 -30.96875 6.671875 -32.113281 8.453125 -32.90625 C 10.234375 -33.707031 12.253906 -34.109375 14.515625 -34.109375 C 17.097656 -34.109375 19.328125 -33.613281 21.203125 -32.625 C 23.085938 -31.632812 24.503906 -30.351562 25.453125 -28.78125 C 26.410156 -27.207031 26.890625 -25.554688 26.890625 -23.828125 L 26.890625 -23.59375 L 18.71875 -23.59375 L 18.71875 -23.734375 C 18.71875 -24.753906 18.359375 -25.703125 17.640625 -26.578125 C 16.929688 -27.453125 15.796875 -27.890625 14.234375 -27.890625 C 13.023438 -27.890625 12.0625 -27.554688 11.34375 -26.890625 C 10.625 -26.222656 10.265625 -25.347656 10.265625 -24.265625 C 10.265625 -23.210938 10.660156 -22.382812 11.453125 -21.78125 C 12.253906 -21.175781 13.210938 -20.765625 14.328125 -20.546875 L 18.203125 -19.671875 C 20.710938 -19.140625 22.859375 -18.125 24.640625 -16.625 C 26.429688 -15.125 27.328125 -12.941406 27.328125 -10.078125 C 27.328125 -7.972656 26.785156 -6.125 25.703125 -4.53125 C 24.617188 -2.945312 23.128906 -1.722656 21.234375 -0.859375 C 19.335938 0.00390625 17.210938 0.4375 14.859375 0.4375 Z M 14.859375 0.4375 "/></g></g></g><g fill="#242424" fill-opacity="1"><g transform="translate(106.164746, 275.772565)"><g><path d="M 2.484375 -35.4375 L 9.9375 -35.4375 L 9.9375 -21.59375 L 10.3125 -21.59375 C 10.851562 -22.769531 11.738281 -23.765625 12.96875 -24.578125 C 14.195312 -25.390625 15.6875 -25.796875 17.4375 -25.796875 C 20.75 -25.796875 23.039062 -24.75 24.3125 -22.65625 C 25.582031 -20.570312 26.21875 -18.242188 26.21875 -15.671875 L 26.21875 0 L 18.765625 0 L 18.765625 -14.375 C 18.765625 -16.03125 18.398438 -17.335938 17.671875 -18.296875 C 16.941406 -19.253906 15.84375 -19.734375 14.375 -19.734375 C 12.914062 -19.734375 11.8125 -19.238281 11.0625 -18.25 C 10.3125 -17.257812 9.9375 -15.96875 9.9375 -14.375 L 9.9375 0 L 2.484375 0 Z M 2.484375 -35.4375 "/></g></g></g><g fill="#242424" fill-opacity="1"><g transform="translate(131.998835, 275.772565)"><g><path d="M 13.953125 0.4375 C 11.273438 0.4375 9.019531 -0.148438 7.1875 -1.328125 C 5.351562 -2.515625 3.988281 -4.09375 3.09375 -6.0625 C 2.207031 -8.039062 1.765625 -10.238281 1.765625 -12.65625 C 1.765625 -15.039062 2.207031 -17.226562 3.09375 -19.21875 C 3.988281 -21.21875 5.351562 -22.8125 7.1875 -24 C 9.019531 -25.195312 11.273438 -25.796875 13.953125 -25.796875 C 16.617188 -25.796875 18.867188 -25.207031 20.703125 -24.03125 C 22.535156 -22.851562 23.894531 -21.265625 24.78125 -19.265625 C 25.675781 -17.273438 26.125 -15.085938 26.125 -12.703125 C 26.125 -10.316406 25.675781 -8.128906 24.78125 -6.140625 C 23.894531 -4.148438 22.535156 -2.554688 20.703125 -1.359375 C 18.867188 -0.160156 16.617188 0.4375 13.953125 0.4375 Z M 13.953125 -5.546875 C 15.609375 -5.546875 16.832031 -6.226562 17.625 -7.59375 C 18.414062 -8.96875 18.8125 -10.6875 18.8125 -12.75 C 18.8125 -14.820312 18.414062 -16.519531 17.625 -17.84375 C 16.832031 -19.164062 15.609375 -19.828125 13.953125 -19.828125 C 12.296875 -19.828125 11.066406 -19.15625 10.265625 -17.8125 C 9.472656 -16.476562 9.078125 -14.789062 9.078125 -12.75 C 9.078125 -10.6875 9.484375 -8.96875 10.296875 -7.59375 C 11.109375 -6.226562 12.328125 -5.546875 13.953125 -5.546875 Z M 13.953125 -5.546875 "/></g></g></g><g fill="#242424" fill-opacity="1"><g transform="translate(157.164363, 275.772565)"><g><path d="M 17.71875 0.4375 C 15.613281 0.4375 13.988281 -0.0390625 12.84375 -1 C 11.695312 -1.957031 10.851562 -2.976562 10.3125 -4.0625 L 9.9375 -4.0625 L 9.9375 9.984375 L 2.4375 9.984375 L 2.4375 -25.265625 L 9.9375 -25.265625 L 9.9375 -21.546875 L 10.3125 -21.546875 C 10.757812 -22.492188 11.5625 -23.4375 12.71875 -24.375 C 13.882812 -25.320312 15.535156 -25.796875 17.671875 -25.796875 C 20.828125 -25.796875 23.253906 -24.613281 24.953125 -22.25 C 26.660156 -19.894531 27.515625 -16.695312 27.515625 -12.65625 C 27.515625 -8.675781 26.660156 -5.5 24.953125 -3.125 C 23.253906 -0.75 20.84375 0.4375 17.71875 0.4375 Z M 14.953125 -5.4375 C 16.671875 -5.4375 17.9375 -6.15625 18.75 -7.59375 C 19.5625 -9.03125 19.96875 -10.71875 19.96875 -12.65625 C 19.96875 -14.601562 19.5625 -16.269531 18.75 -17.65625 C 17.9375 -19.039062 16.671875 -19.734375 14.953125 -19.734375 C 13.234375 -19.734375 11.96875 -19.03125 11.15625 -17.625 C 10.34375 -16.226562 9.9375 -14.570312 9.9375 -12.65625 C 9.9375 -10.71875 10.347656 -9.03125 11.171875 -7.59375 C 12.003906 -6.15625 13.265625 -5.4375 14.953125 -5.4375 Z M 14.953125 -5.4375 "/></g></g></g><g fill="#242424" fill-opacity="1"><g transform="translate(184.049028, 275.772565)"><g><path d="M 0.4375 -33.4375 L 7.875 -33.4375 L 15.765625 -7.984375 L 16.046875 -7.984375 L 23.890625 -33.4375 L 31.328125 -33.4375 L 20.640625 0.046875 L 11.125 0.046875 Z M 0.4375 -33.4375 "/></g></g></g><g fill="#242424" fill-opacity="1"><g transform="translate(213.034861, 275.772565)"><g><path d="M 11.328125 0.4375 C 8.203125 0.4375 5.785156 -0.75 4.078125 -3.125 C 2.378906 -5.5 1.53125 -8.675781 1.53125 -12.65625 C 1.53125 -16.664062 2.40625 -19.859375 4.15625 -22.234375 C 5.90625 -24.609375 8.328125 -25.796875 11.421875 -25.796875 C 13.546875 -25.796875 15.179688 -25.320312 16.328125 -24.375 C 17.484375 -23.4375 18.28125 -22.492188 18.71875 -21.546875 L 19.109375 -21.546875 L 19.109375 -25.265625 L 26.609375 -25.265625 L 26.609375 0 L 19.109375 0 L 19.109375 -4.0625 L 18.71875 -4.0625 C 18.238281 -3.039062 17.414062 -2.035156 16.25 -1.046875 C 15.09375 -0.0546875 13.453125 0.4375 11.328125 0.4375 Z M 14.140625 -5.546875 C 15.828125 -5.546875 17.082031 -6.253906 17.90625 -7.671875 C 18.738281 -9.085938 19.15625 -10.765625 19.15625 -12.703125 C 19.15625 -14.617188 18.738281 -16.285156 17.90625 -17.703125 C 17.082031 -19.117188 15.828125 -19.828125 14.140625 -19.828125 C 12.390625 -19.828125 11.109375 -19.132812 10.296875 -17.75 C 9.484375 -16.363281 9.078125 -14.695312 9.078125 -12.75 C 9.078125 -10.78125 9.484375 -9.085938 10.296875 -7.671875 C 11.109375 -6.253906 12.390625 -5.546875 14.140625 -5.546875 Z M 14.140625 -5.546875 "/></g></g></g><g fill="#242424" fill-opacity="1"><g transform="translate(239.728512, 275.772565)"><g><path d="M 2.484375 -25.265625 L 9.9375 -25.265625 L 9.9375 -21.59375 L 10.3125 -21.59375 C 10.851562 -22.769531 11.738281 -23.765625 12.96875 -24.578125 C 14.195312 -25.390625 15.6875 -25.796875 17.4375 -25.796875 C 20.75 -25.796875 23.039062 -24.75 24.3125 -22.65625 C 25.582031 -20.570312 26.21875 -18.242188 26.21875 -15.671875 L 26.21875 0 L 18.765625 0 L 18.765625 -14.375 C 18.765625 -16.03125 18.398438 -17.335938 17.671875 -18.296875 C 16.941406 -19.253906 15.859375 -19.734375 14.421875 -19.734375 C 12.890625 -19.734375 11.757812 -19.226562 11.03125 -18.21875 C 10.300781 -17.21875 9.9375 -15.9375 9.9375 -14.375 L 9.9375 0 L 2.484375 0 Z M 2.484375 -25.265625 "/></g></g></g><g fill="#242424" fill-opacity="1"><g transform="translate(265.562598, 275.772565)"><g><path d="M 11.328125 0.4375 C 8.203125 0.4375 5.785156 -0.75 4.078125 -3.125 C 2.378906 -5.5 1.53125 -8.675781 1.53125 -12.65625 C 1.53125 -16.664062 2.40625 -19.859375 4.15625 -22.234375 C 5.90625 -24.609375 8.328125 -25.796875 11.421875 -25.796875 C 13.546875 -25.796875 15.179688 -25.320312 16.328125 -24.375 C 17.484375 -23.4375 18.28125 -22.492188 18.71875 -21.546875 L 19.109375 -21.546875 L 19.109375 -25.265625 L 26.609375 -25.265625 L 26.609375 0 L 19.109375 0 L 19.109375 -4.0625 L 18.71875 -4.0625 C 18.238281 -3.039062 17.414062 -2.035156 16.25 -1.046875 C 15.09375 -0.0546875 13.453125 0.4375 11.328125 0.4375 Z M 14.140625 -5.546875 C 15.828125 -5.546875 17.082031 -6.253906 17.90625 -7.671875 C 18.738281 -9.085938 19.15625 -10.765625 19.15625 -12.703125 C 19.15625 -14.617188 18.738281 -16.285156 17.90625 -17.703125 C 17.082031 -19.117188 15.828125 -19.828125 14.140625 -19.828125 C 12.390625 -19.828125 11.109375 -19.132812 10.296875 -17.75 C 9.484375 -16.363281 9.078125 -14.695312 9.078125 -12.75 C 9.078125 -10.78125 9.484375 -9.085938 10.296875 -7.671875 C 11.109375 -6.253906 12.390625 -5.546875 14.140625 -5.546875 Z M 14.140625 -5.546875 "/></g></g></g><g fill="#242424" fill-opacity="1"><g transform="translate(139.239399, 297.659188)"><g><path d="M 3.640625 0.09375 C 2.929688 0.09375 2.332031 -0.0664062 1.84375 -0.390625 C 1.351562 -0.722656 0.984375 -1.160156 0.734375 -1.703125 C 0.492188 -2.253906 0.375 -2.863281 0.375 -3.53125 C 0.375 -4.195312 0.5 -4.804688 0.75 -5.359375 C 1 -5.921875 1.367188 -6.367188 1.859375 -6.703125 C 2.347656 -7.035156 2.941406 -7.203125 3.640625 -7.203125 C 4.328125 -7.203125 4.914062 -7.035156 5.40625 -6.703125 C 5.894531 -6.378906 6.257812 -5.9375 6.5 -5.375 C 6.75 -4.8125 6.875 -4.191406 6.875 -3.515625 C 6.875 -2.847656 6.75 -2.238281 6.5 -1.6875 C 6.257812 -1.144531 5.894531 -0.710938 5.40625 -0.390625 C 4.914062 -0.0664062 4.328125 0.09375 3.640625 0.09375 Z M 3.640625 -1.3125 C 4.128906 -1.3125 4.507812 -1.519531 4.78125 -1.9375 C 5.0625 -2.363281 5.203125 -2.898438 5.203125 -3.546875 C 5.203125 -4.171875 5.066406 -4.703125 4.796875 -5.140625 C 4.523438 -5.578125 4.140625 -5.796875 3.640625 -5.796875 C 3.296875 -5.796875 3.003906 -5.691406 2.765625 -5.484375 C 2.523438 -5.273438 2.34375 -5 2.21875 -4.65625 C 2.101562 -4.320312 2.046875 -3.953125 2.046875 -3.546875 C 2.046875 -2.921875 2.179688 -2.390625 2.453125 -1.953125 C 2.722656 -1.523438 3.117188 -1.3125 3.640625 -1.3125 Z M 3.640625 -1.3125 "/></g></g></g><g fill="#242424" fill-opacity="1"><g transform="translate(149.03949, 297.659188)"><g><path d="M 0.53125 -7.0625 L 2.359375 -7.0625 L 4.9375 -2.40625 L 4.96875 -2.40625 L 4.96875 -7.0625 L 6.515625 -7.0625 L 6.515625 0.015625 L 4.671875 0.015625 L 2.109375 -4.46875 L 2.078125 -4.46875 L 2.078125 0.015625 L 0.53125 0.015625 Z M 0.53125 -7.0625 "/></g></g></g><g fill="#242424" fill-opacity="1"><g transform="translate(158.597699, 297.659188)"><g><path d="M 5.078125 -1.375 L 5.078125 0 L 0.53125 0 L 0.53125 -7.0625 L 2.109375 -7.0625 L 2.09375 -1.375 Z M 5.078125 -1.375 "/></g></g></g><g fill="#242424" fill-opacity="1"><g transform="translate(166.51318, 297.659188)"><g><path d="M 0.59375 -7.0625 L 2.1875 -7.0625 L 2.1875 0 L 0.59375 0 Z M 0.59375 -7.0625 "/></g></g></g><g fill="#242424" fill-opacity="1"><g transform="translate(171.81842, 297.659188)"><g><path d="M 0.53125 -7.0625 L 2.359375 -7.0625 L 4.9375 -2.40625 L 4.96875 -2.40625 L 4.96875 -7.0625 L 6.515625 -7.0625 L 6.515625 0.015625 L 4.671875 0.015625 L 2.109375 -4.46875 L 2.078125 -4.46875 L 2.078125 0.015625 L 0.53125 0.015625 Z M 0.53125 -7.0625 "/></g></g></g><g fill="#242424" fill-opacity="1"><g transform="translate(181.376628, 297.659188)"><g><path d="M 2.109375 -5.6875 L 2.109375 -4.1875 L 4.796875 -4.1875 L 4.796875 -2.96875 L 2.109375 -2.96875 L 2.109375 -1.375 L 5.296875 -1.375 L 5.296875 0 L 0.53125 0 L 0.53125 -7.0625 L 5.296875 -7.0625 L 5.296875 -5.6875 Z M 2.109375 -5.6875 "/></g></g></g><g fill="#242424" fill-opacity="1"><g transform="translate(189.604529, 297.659188)"><g/></g></g><g fill="#242424" fill-opacity="1"><g transform="translate(194.446169, 297.659188)"><g><path d="M 3.140625 0.09375 C 2.578125 0.09375 2.085938 -0.015625 1.671875 -0.234375 C 1.253906 -0.460938 0.9375 -0.753906 0.71875 -1.109375 C 0.507812 -1.472656 0.40625 -1.847656 0.40625 -2.234375 L 0.40625 -2.328125 L 2.140625 -2.328125 L 2.140625 -2.25 C 2.140625 -2.007812 2.226562 -1.785156 2.40625 -1.578125 C 2.582031 -1.378906 2.835938 -1.28125 3.171875 -1.28125 C 3.460938 -1.28125 3.691406 -1.351562 3.859375 -1.5 C 4.035156 -1.644531 4.125 -1.84375 4.125 -2.09375 C 4.125 -2.300781 4.046875 -2.472656 3.890625 -2.609375 C 3.734375 -2.742188 3.546875 -2.832031 3.328125 -2.875 L 2.515625 -3.03125 C 2.046875 -3.144531 1.601562 -3.347656 1.1875 -3.640625 C 0.78125 -3.941406 0.578125 -4.425781 0.578125 -5.09375 C 0.578125 -5.53125 0.679688 -5.90625 0.890625 -6.21875 C 1.109375 -6.539062 1.40625 -6.785156 1.78125 -6.953125 C 2.164062 -7.117188 2.59375 -7.203125 3.0625 -7.203125 C 3.613281 -7.203125 4.085938 -7.097656 4.484375 -6.890625 C 4.878906 -6.679688 5.175781 -6.410156 5.375 -6.078125 C 5.582031 -5.742188 5.6875 -5.394531 5.6875 -5.03125 L 5.6875 -4.984375 L 3.953125 -4.984375 L 3.953125 -5.015625 C 3.953125 -5.234375 3.875 -5.429688 3.71875 -5.609375 C 3.570312 -5.796875 3.335938 -5.890625 3.015625 -5.890625 C 2.753906 -5.890625 2.546875 -5.816406 2.390625 -5.671875 C 2.242188 -5.535156 2.171875 -5.351562 2.171875 -5.125 C 2.171875 -4.90625 2.253906 -4.726562 2.421875 -4.59375 C 2.585938 -4.46875 2.789062 -4.382812 3.03125 -4.34375 L 3.84375 -4.15625 C 4.375 -4.039062 4.828125 -3.820312 5.203125 -3.5 C 5.585938 -3.1875 5.78125 -2.726562 5.78125 -2.125 C 5.78125 -1.6875 5.664062 -1.296875 5.4375 -0.953125 C 5.207031 -0.617188 4.890625 -0.359375 4.484375 -0.171875 C 4.085938 0.00390625 3.640625 0.09375 3.140625 0.09375 Z M 3.140625 0.09375 "/></g></g></g><g fill="#242424" fill-opacity="1"><g transform="translate(203.067117, 297.659188)"><g><path d="M 5.625 -5.6875 L 3.78125 -5.6875 L 3.78125 0 L 2.203125 0 L 2.203125 -5.6875 L 0.359375 -5.6875 L 0.359375 -7.0625 L 5.625 -7.0625 Z M 5.625 -5.6875 "/></g></g></g><g fill="#242424" fill-opacity="1"><g transform="translate(211.577206, 297.659188)"><g><path d="M 3.640625 0.09375 C 2.929688 0.09375 2.332031 -0.0664062 1.84375 -0.390625 C 1.351562 -0.722656 0.984375 -1.160156 0.734375 -1.703125 C 0.492188 -2.253906 0.375 -2.863281 0.375 -3.53125 C 0.375 -4.195312 0.5 -4.804688 0.75 -5.359375 C 1 -5.921875 1.367188 -6.367188 1.859375 -6.703125 C 2.347656 -7.035156 2.941406 -7.203125 3.640625 -7.203125 C 4.328125 -7.203125 4.914062 -7.035156 5.40625 -6.703125 C 5.894531 -6.378906 6.257812 -5.9375 6.5 -5.375 C 6.75 -4.8125 6.875 -4.191406 6.875 -3.515625 C 6.875 -2.847656 6.75 -2.238281 6.5 -1.6875 C 6.257812 -1.144531 5.894531 -0.710938 5.40625 -0.390625 C 4.914062 -0.0664062 4.328125 0.09375 3.640625 0.09375 Z M 3.640625 -1.3125 C 4.128906 -1.3125 4.507812 -1.519531 4.78125 -1.9375 C 5.0625 -2.363281 5.203125 -2.898438 5.203125 -3.546875 C 5.203125 -4.171875 5.066406 -4.703125 4.796875 -5.140625 C 4.523438 -5.578125 4.140625 -5.796875 3.640625 -5.796875 C 3.296875 -5.796875 3.003906 -5.691406 2.765625 -5.484375 C 2.523438 -5.273438 2.34375 -5 2.21875 -4.65625 C 2.101562 -4.320312 2.046875 -3.953125 2.046875 -3.546875 C 2.046875 -2.921875 2.179688 -2.390625 2.453125 -1.953125 C 2.722656 -1.523438 3.117188 -1.3125 3.640625 -1.3125 Z M 3.640625 -1.3125 "/></g></g></g><g fill="#242424" fill-opacity="1"><g transform="translate(221.377296, 297.659188)"><g><path d="M 2.90625 -2.46875 L 2.09375 -2.46875 L 2.09375 0 L 0.53125 0 L 0.53125 -7.0625 L 3.203125 -7.0625 C 3.765625 -7.0625 4.238281 -6.953125 4.625 -6.734375 C 5.007812 -6.523438 5.296875 -6.242188 5.484375 -5.890625 C 5.679688 -5.535156 5.78125 -5.15625 5.78125 -4.75 C 5.78125 -4.289062 5.664062 -3.875 5.4375 -3.5 C 5.207031 -3.132812 4.867188 -2.863281 4.421875 -2.6875 L 5.9375 0 L 4.296875 0 Z M 2.09375 -3.75 L 2.953125 -3.75 C 3.316406 -3.75 3.625 -3.820312 3.875 -3.96875 C 4.125 -4.125 4.25 -4.382812 4.25 -4.75 C 4.25 -5.09375 4.125 -5.332031 3.875 -5.46875 C 3.632812 -5.613281 3.328125 -5.6875 2.953125 -5.6875 L 2.09375 -5.6875 Z M 2.09375 -3.75 "/></g></g></g><g fill="#242424" fill-opacity="1"><g transform="translate(230.02848, 297.659188)"><g><path d="M 2.109375 -5.6875 L 2.109375 -4.1875 L 4.796875 -4.1875 L 4.796875 -2.96875 L 2.109375 -2.96875 L 2.109375 -1.375 L 5.296875 -1.375 L 5.296875 0 L 0.53125 0 L 0.53125 -7.0625 L 5.296875 -7.0625 L 5.296875 -5.6875 Z M 2.109375 -5.6875 "/></g></g></g><path fill="#ffc300" d="M 128.242188 174.492188 C 125.707031 174.492188 123.65625 176.546875 123.65625 179.078125 C 123.65625 181.613281 125.707031 183.664062 128.242188 183.664062 C 130.773438 183.664062 132.828125 181.613281 132.828125 179.078125 C 132.828125 176.546875 130.773438 174.492188 128.242188 174.492188 " fill-opacity="1" fill-rule="nonzero"/><path fill="#ffc300" d="M 125.71875 195.746094 C 125.277344 197.140625 126.054688 198.625 127.445312 199.066406 C 127.734375 199.15625 133.464844 200.925781 140.945312 200.925781 C 142.417969 200.925781 143.957031 200.855469 145.535156 200.695312 C 158.589844 199.34375 167.980469 192.199219 172.6875 180.035156 C 173.214844 178.671875 172.539062 177.140625 171.175781 176.609375 C 169.816406 176.082031 168.28125 176.761719 167.753906 178.121094 C 163.773438 188.410156 156.164062 194.226562 145.144531 195.414062 C 136.648438 196.328125 129.1875 194.0625 129.035156 194.015625 C 127.640625 193.578125 126.15625 194.351562 125.71875 195.746094 " fill-opacity="1" fill-rule="nonzero"/><g clip-path="url(#5c3c904301)"><path fill="#ffc300" d="M 228.289062 165.996094 L 217.605469 209.914062 C 216.792969 213.257812 213.230469 215.128906 210.015625 213.898438 L 196.53125 208.742188 L 194.210938 190.527344 C 195.648438 191.730469 197.285156 192.796875 199.113281 193.722656 C 200.101562 194.222656 201.089844 194.652344 202.050781 195.019531 C 206.941406 196.890625 211.125 197.164062 211.335938 197.175781 C 212.355469 197.238281 213.234375 196.460938 213.292969 195.441406 C 213.355469 194.421875 212.578125 193.546875 211.558594 193.484375 C 211.449219 193.476562 206.007812 193.089844 200.683594 190.371094 C 197.566406 188.773438 195.140625 186.734375 193.414062 184.265625 L 188.832031 148.296875 C 188.796875 148.023438 188.75 147.757812 188.699219 147.496094 C 190.085938 146.800781 191.746094 146.679688 193.292969 147.269531 L 194.207031 147.617188 C 194.152344 147.714844 194.109375 147.816406 194.066406 147.921875 C 193.5 149.410156 194.242188 151.074219 195.730469 151.644531 C 197.21875 152.210938 198.882812 151.46875 199.453125 149.980469 C 199.492188 149.875 199.523438 149.769531 199.550781 149.664062 L 218.515625 156.917969 C 218.464844 157.015625 218.421875 157.113281 218.378906 157.21875 C 217.8125 158.707031 218.554688 160.375 220.042969 160.941406 C 221.53125 161.511719 223.195312 160.765625 223.765625 159.28125 C 223.804688 159.175781 223.835938 159.070312 223.863281 158.960938 L 224.777344 159.3125 C 227.464844 160.339844 228.96875 163.203125 228.289062 165.996094 Z M 195.148438 148.113281 C 198.066406 140.480469 206.652344 136.644531 214.285156 139.5625 C 221.917969 142.484375 225.753906 151.066406 222.832031 158.699219 C 222.46875 159.65625 221.398438 160.132812 220.441406 159.765625 C 219.488281 159.402344 219.011719 158.332031 219.375 157.378906 C 221.566406 151.652344 218.6875 145.210938 212.960938 143.019531 C 207.238281 140.828125 200.792969 143.707031 198.605469 149.433594 C 198.238281 150.386719 197.167969 150.867188 196.214844 150.5 C 195.261719 150.136719 194.78125 149.066406 195.148438 148.113281 Z M 171.480469 144.453125 C 170.019531 144.453125 168.835938 143.269531 168.835938 141.808594 C 168.835938 133.039062 161.703125 125.910156 152.9375 125.910156 C 144.167969 125.910156 137.035156 133.039062 137.035156 141.808594 C 137.035156 143.269531 135.851562 144.453125 134.390625 144.453125 C 132.929688 144.453125 131.746094 143.269531 131.746094 141.808594 C 131.746094 130.125 141.25 120.617188 152.9375 120.617188 C 164.621094 120.617188 174.125 130.125 174.125 141.808594 C 174.125 143.269531 172.941406 144.453125 171.480469 144.453125 Z M 187.496094 91.445312 C 146.078125 91.445312 112.5 125.023438 112.5 166.441406 C 112.5 174.011719 113.621094 181.320312 115.707031 188.207031 L 120.734375 148.765625 C 121.253906 144.6875 124.722656 141.628906 128.835938 141.628906 L 130.234375 141.628906 C 130.214844 141.785156 130.207031 141.945312 130.207031 142.105469 C 130.207031 144.382812 132.050781 146.226562 134.328125 146.226562 C 136.601562 146.226562 138.449219 144.382812 138.449219 142.105469 C 138.449219 141.945312 138.4375 141.785156 138.417969 141.628906 L 167.453125 141.628906 C 167.433594 141.785156 167.421875 141.945312 167.421875 142.105469 C 167.421875 144.382812 169.269531 146.226562 171.546875 146.226562 C 173.820312 146.226562 175.667969 144.382812 175.667969 142.105469 C 175.667969 141.945312 175.65625 141.785156 175.636719 141.628906 L 177.035156 141.628906 C 181.148438 141.628906 184.617188 144.6875 185.136719 148.765625 L 193.304688 212.871094 C 193.925781 217.753906 190.125 222.070312 185.203125 222.070312 L 137.199219 222.070312 C 150.503906 234.105469 168.144531 241.4375 187.496094 241.4375 C 228.914062 241.4375 262.492188 207.863281 262.492188 166.441406 C 262.492188 125.023438 228.914062 91.445312 187.496094 91.445312 " fill-opacity="1" fill-rule="nonzero"/></g><path fill="#ffc300" d="M 216.957031 180.925781 C 215.300781 180.292969 213.449219 181.121094 212.8125 182.777344 C 212.179688 184.429688 213.011719 186.285156 214.664062 186.917969 C 216.320312 187.550781 218.171875 186.722656 218.804688 185.070312 C 219.4375 183.414062 218.609375 181.558594 216.957031 180.925781 " fill-opacity="1" fill-rule="nonzero"/></svg>